<svg width="121" height="24" viewBox="0 0 121 24" fill="none" xmlns="http://www.w3.org/2000/svg">
<path d="M33.9429 23.0646H28.9998L36.5317 1.24645H42.4763L49.9976 23.0646H45.0544L39.5892 6.23224H39.4188L33.9429 23.0646ZM33.634 14.4886H45.3101V18.0895H33.634V14.4886Z" fill="black"/>
<path d="M56.3311 6.70099L59.3353 12.4219L62.4142 6.70099H67.0697L62.3289 14.8828L67.1976 23.0646H62.5633L59.3353 17.4077L56.1606 23.0646H51.4731L56.3311 14.8828L51.6436 6.70099H56.3311Z" fill="black"/>
<path d="M69.765 23.0646V6.70099H74.3034V23.0646H69.765ZM72.0449 4.59162C71.3701 4.59162 70.7913 4.3679 70.3083 3.92045C69.8325 3.46591 69.5946 2.92259 69.5946 2.29048C69.5946 1.66548 69.8325 1.12926 70.3083 0.681819C70.7913 0.227273 71.3701 0 72.0449 0C72.7196 0 73.2949 0.227273 73.7707 0.681819C74.2537 1.12926 74.4951 1.66548 74.4951 2.29048C74.4951 2.92259 74.2537 3.46591 73.7707 3.92045C73.2949 4.3679 72.7196 4.59162 72.0449 4.59162Z" fill="black"/>
<path d="M77.9389 23.0646V6.70099H82.2641V9.58807H82.4559C82.7968 8.62926 83.365 7.87287 84.1604 7.31889C84.9559 6.76492 85.9076 6.48793 87.0156 6.48793C88.1377 6.48793 89.093 6.76847 89.8813 7.32955C90.6697 7.88352 91.1952 8.63636 91.458 9.58807H91.6285C91.9623 8.65057 92.566 7.90128 93.4396 7.3402C94.3203 6.77202 95.3607 6.48793 96.561 6.48793C98.088 6.48793 99.3273 6.97443 100.279 7.94744C101.238 8.91335 101.717 10.2841 101.717 12.0597V23.0646H97.1896V12.9545C97.1896 12.0455 96.9481 11.3636 96.4651 10.9091C95.9822 10.4545 95.3785 10.2273 94.6541 10.2273C93.8302 10.2273 93.1874 10.4901 92.7258 11.0156C92.2641 11.5341 92.0333 12.2195 92.0333 13.0717V23.0646H87.6335V12.8587C87.6335 12.0561 87.4026 11.4169 86.941 10.9411C86.4864 10.4652 85.8863 10.2273 85.1406 10.2273C84.6363 10.2273 84.1818 10.3551 83.7769 10.6108C83.3792 10.8594 83.0631 11.2109 82.8288 11.6655C82.5944 12.1129 82.4772 12.6385 82.4772 13.2422V23.0646H77.9389Z" fill="black"/>
<path d="M112.696 23.3842C111.041 23.3842 109.61 23.0327 108.402 22.3295C107.202 21.6193 106.275 20.6321 105.622 19.3679C104.968 18.0966 104.642 16.6229 104.642 14.9467C104.642 13.2564 104.968 11.7791 105.622 10.5149C106.275 9.24361 107.202 8.25639 108.402 7.55327C109.61 6.84304 111.041 6.48793 112.696 6.48793C114.35 6.48793 115.778 6.84304 116.978 7.55327C118.186 8.25639 119.116 9.24361 119.769 10.5149C120.423 11.7791 120.75 13.2564 120.75 14.9467C120.75 16.6229 120.423 18.0966 119.769 19.3679C119.116 20.6321 118.186 21.6193 116.978 22.3295C115.778 23.0327 114.35 23.3842 112.696 23.3842ZM112.717 19.8686C113.47 19.8686 114.098 19.6555 114.603 19.2294C115.107 18.7962 115.487 18.2067 115.742 17.4609C116.005 16.7152 116.137 15.8665 116.137 14.9148C116.137 13.9631 116.005 13.1143 115.742 12.3686C115.487 11.6229 115.107 11.0334 114.603 10.6001C114.098 10.1669 113.47 9.95028 112.717 9.95028C111.957 9.95028 111.318 10.1669 110.799 10.6001C110.288 11.0334 109.901 11.6229 109.638 12.3686C109.382 13.1143 109.255 13.9631 109.255 14.9148C109.255 15.8665 109.382 16.7152 109.638 17.4609C109.901 18.2067 110.288 18.7962 110.799 19.2294C111.318 19.6555 111.957 19.8686 112.717 19.8686Z" fill="black"/>
<path fill-rule="evenodd" clip-rule="evenodd" d="M-0.000244141 0C-0.000244141 6.62742 5.37234 12 11.9998 12C5.37234 12 -0.000244141 17.3726 -0.000244141 24H1.43976C1.43976 18.1679 6.16762 13.44 11.9998 13.44C17.8319 13.44 22.5598 18.1679 22.5598 24H23.9998C23.9998 17.3726 18.6271 12 11.9998 12C18.6271 12 23.9998 6.62742 23.9998 0H22.5598C22.5598 5.83213 17.8319 10.56 11.9998 10.56C6.16762 10.56 1.43976 5.83213 1.43976 0H-0.000244141ZM2.87976 0C2.87976 5.03683 6.96292 9.12 11.9998 9.12C17.0366 9.12 21.1198 5.03683 21.1198 0H19.6798C19.6798 4.24154 16.2413 7.68 11.9998 7.68C7.75821 7.68 4.31976 4.24154 4.31976 0H2.87976ZM5.75976 0C5.75976 3.44626 8.5535 6.24 11.9998 6.24C15.446 6.24 18.2398 3.44626 18.2398 0H16.7998C16.7998 2.65097 14.6507 4.8 11.9998 4.8C9.34879 4.8 7.19976 2.65097 7.19976 0H5.75976ZM11.9998 14.88C17.0366 14.88 21.1198 18.9631 21.1198 24H19.6798C19.6798 19.7585 16.2413 16.32 11.9998 16.32C7.75821 16.32 4.31976 19.7585 4.31976 24H2.87976C2.87976 18.9631 6.96292 14.88 11.9998 14.88ZM11.9998 17.76C15.446 17.76 18.2398 20.5537 18.2398 24H16.7998C16.7998 21.3491 14.6507 19.2 11.9998 19.2C9.34879 19.2 7.19976 21.3491 7.19976 24H5.75976C5.75976 20.5537 8.5535 17.76 11.9998 17.76Z" fill="#1B1B1B"/>
</svg>
